<svg width="96" height="56" viewBox="0 0 96 56" fill="none" xmlns="http://www.w3.org/2000/svg">
  <rect x="0.5" y="0.5" width="95" height="55" rx="10" fill="#FFFFFF" stroke="#E5E7EB"/>
  <path d="M30.5 39L33.2 17.8C33.3 17.1 33.9 16.6 34.6 16.6H43.1C50.5 16.6 54.2 20.2 53.1 27.2C52 33.8 47 36.4 40.3 36.4H36.7L35.8 39.9H31.4C30.8 39.9 30.4 39.5 30.5 39Z" fill="#003087"/>
  <path d="M38.4 39L40.7 21.2C40.8 20.6 41.3 20.2 41.9 20.2H49.1C54.7 20.2 57.5 23 56.6 28.2C55.8 33.7 51.8 35.7 46.5 35.7H42.9L42 39.9H39.2C38.7 39.9 38.3 39.5 38.4 39Z" fill="#009CDE"/>
  <text x="48" y="47" text-anchor="middle" font-family="Arial, Helvetica, sans-serif" font-size="8" fill="#111827">PayPal</text>
</svg>
