<svg width="96" height="56" viewBox="0 0 96 56" fill="none" xmlns="http://www.w3.org/2000/svg">
  <rect x="0.5" y="0.5" width="95" height="55" rx="10" fill="#FFFFFF" stroke="#E5E7EB"/>
  <rect x="18" y="17" width="60" height="22" rx="6" fill="#635BFF"/>
  <path d="M31.1 25.5C31.1 24.7 31.8 24.2 33 24.2C34.7 24.2 36.8 24.7 38.5 25.6V21.9C36.7 21.2 34.9 20.9 33 20.9C28.3 20.9 25.2 23.4 25.2 27.6C25.2 34.2 34.2 33.1 34.2 35.4C34.2 36.3 33.4 36.7 32.2 36.7C30.3 36.7 27.9 35.9 26.1 34.9V38.7C28.1 39.6 30.1 40 32.2 40C37.1 40 40.4 37.6 40.4 33.3C40.3 26.2 31.1 27.5 31.1 25.5Z" fill="white"/>
  <text x="59" y="31" text-anchor="middle" font-family="Arial, Helvetica, sans-serif" font-size="9" font-weight="700" fill="white">stripe</text>
</svg>
