<svg width="96" height="56" viewBox="0 0 96 56" fill="none" xmlns="http://www.w3.org/2000/svg">
  <rect x="0.5" y="0.5" width="95" height="55" rx="10" fill="#FFFFFF" stroke="#E5E7EB"/>
  <path d="M36.2 37.4H30.8L34.2 18.7H39.5L36.2 37.4Z" fill="#1A1F71"/>
  <path d="M55.7 19.2C54.6 18.8 52.8 18.3 50.6 18.3C45 18.3 41.1 21.3 41.1 25.5C41.1 28.6 43.9 30.3 46 31.3C48.1 32.3 48.8 33 48.8 34C48.8 35.5 47 36.2 45.3 36.2C43 36.2 41.8 35.8 39.8 34.9L39 34.5L38.2 39.1C39.6 39.7 42.2 40.3 44.9 40.3C50.9 40.3 54.8 37.3 54.8 32.8C54.8 30.3 53.3 28.4 49.9 26.8C47.9 25.8 46.7 25.2 46.7 24.2C46.7 23.3 47.8 22.3 50 22.3C51.8 22.2 53.1 22.7 54.1 23.1L54.7 23.4L55.7 19.2Z" fill="#1A1F71"/>
  <path d="M62.7 30.8L64.9 24.9C64.9 24.9 65.4 23.5 65.8 22.6L66.2 24.7L67.5 30.8H62.7ZM69.3 18.7H65.2C63.9 18.7 63 19 62.4 20.4L54.5 37.4H60.5L61.6 34.3H68.9L69.5 37.4H74.8L69.3 18.7Z" fill="#1A1F71"/>
  <path d="M26.2 18.7L21 31.5L20.4 28.6C19.5 25.6 16.7 22.3 13.5 20.7L18.3 37.4H24.3L33.3 18.7H26.2Z" fill="#1A1F71"/>
  <path d="M15.9 18.7H6.8L6.7 19.1C13.8 20.9 18.4 25.3 20.4 28.6L18.4 20.4C18.1 19.1 17.2 18.8 15.9 18.7Z" fill="#F7B600"/>
</svg>
