<?xml version="1.0" encoding="UTF-8"?>
<svg width="95px" height="28px" viewBox="0 0 95 28" version="1.1" xmlns="http://www.w3.org/2000/svg" xmlns:xlink="http://www.w3.org/1999/xlink">
    <title>F4EAA9AC-14F0-4697-81D1-986E3214A30F</title>
    <defs>
        <linearGradient x1="48.5871845%" y1="-5.58072875%" x2="51.0648945%" y2="95.9892827%" id="linearGradient-1">
            <stop stop-color="#A75584" offset="1.98%"/>
            <stop stop-color="#B6496F" offset="42.05%"/>
            <stop stop-color="#BF4868" offset="57.37%"/>
            <stop stop-color="#D64455" offset="81.9%"/>
            <stop stop-color="#E0434D" offset="90.56%"/>
        </linearGradient>
        <linearGradient x1="74.4605774%" y1="9.39995678%" x2="-1.87608808%" y2="217.958946%" id="linearGradient-2">
            <stop stop-color="#FFE065" offset="0.2843342%"/>
            <stop stop-color="#FFDC54" offset="2.41%"/>
            <stop stop-color="#FFC906" offset="12.84%"/>
            <stop stop-color="#FEC30C" offset="14.49%"/>
            <stop stop-color="#F59D31" offset="26%"/>
            <stop stop-color="#F28F3F" offset="32.06%"/>
            <stop stop-color="#ED6948" offset="46.98%"/>
        </linearGradient>
        <linearGradient x1="44.2426567%" y1="-0.0427776797%" x2="56.7001059%" y2="109.767658%" id="linearGradient-3">
            <stop stop-color="#CF5C6C" offset="1.81%"/>
            <stop stop-color="#D85F68" offset="9.04%"/>
            <stop stop-color="#EB6661" offset="26.82%"/>
            <stop stop-color="#F1685F" offset="39.56%"/>
            <stop stop-color="#F0774F" offset="65.21%"/>
            <stop stop-color="#F08441" offset="95.68%"/>
        </linearGradient>
    </defs>
    <g id="Symbols" stroke="none" stroke-width="1" fill="none" fill-rule="evenodd">
        <g id="Web/*_Assets/Logo/Horizontal/Light-Mode" fill-rule="nonzero">
            <g id="Airalo-Logo" transform="translate(-0.000077, 0.034209)">
                <g id="Group">
                    <path d="M34.3911837,1.38169049 L34.3911837,19.482763 C34.3911837,19.482763 34.453385,22.2854129 32.1199472,24.9476211 C29.7865093,27.6098293 26.7235389,27.9322268 25.912256,27.9322268 C25.1009732,27.9322268 22.4227623,27.9322268 22.4227623,27.9322268 L22.8643916,7.79695863 C22.8643916,7.79695863 22.92215,4.76995548 25.4661837,2.24112267 C27.8902578,-0.168467236 30.9843289,0.00288923122 30.9843289,0.00288923122 L33.0538555,0.00288923122 C33.0538555,0.00200595046 34.3911837,-0.123419917 34.3911837,1.38169049 Z" id="Path" fill="url(#linearGradient-1)"/>
                    <path d="M11.3100532,15.6687567 L11.4122411,27.9322268 L1.21389131,27.9322268 C1.21389131,27.9322268 0,27.9039618 0,26.9615012 C0,26.0190407 0,23.2835201 0,23.2835201 C0,23.2835201 -0.0452410058,20.5762646 2.06160637,18.3018167 C4.16845374,16.028252 6.68138683,15.7288198 7.4642348,15.7288198 C8.24708277,15.7288198 11.3100532,15.6687567 11.3100532,15.6687567 Z" id="Path" fill="url(#linearGradient-2)"/>
                    <path d="M22.9150413,27.9322268 L10.8444319,27.9322268 L11.3091646,15.6687567 C11.3091646,15.6687567 11.1661016,12.7495138 13.8789675,10.154435 C15.740564,8.37374097 17.4688719,7.92415106 18.9776981,7.92415106 C20.4865242,7.92415106 22.8608372,7.92415106 22.8608372,7.92415106 L22.9150413,27.9322268 Z" id="Path" fill="url(#linearGradient-3)"/>
                    <path d="M22.4120992,27.9331101 C22.4120992,27.9331101 22.6164749,27.9331101 22.9150413,27.9331101 L22.8617258,7.92503434 L22.4120992,27.9331101 Z" id="Path" fill="#B50D31" opacity="0.61"/>
                    <polygon id="Path" fill="#C84E28" opacity="0.59" points="11.3091646 15.5177157 10.8328803 27.9322268 11.3998008 27.9322268"/>
                </g>
                <g id="Group" transform="translate(37.850568, 5.570208)" fill="#4A4A4C">
                    <path d="M8.98203704,4.70347003 L11.856466,4.70347003 L11.856466,16.1269401 L8.98203704,16.1269401 L8.98203704,14.9194953 C8.42132407,15.4512303 7.8579537,15.8345741 7.29369753,16.0695268 C6.72944136,16.3035962 6.11735185,16.4210726 5.45831481,16.4210726 C3.97902469,16.4210726 2.69904012,15.8487066 1.61924691,14.7039748 C0.539453704,13.5592429 0,12.1371609 0,10.4359621 C0,8.67205047 0.522623457,7.22700315 1.56698457,6.09993691 C2.61134568,4.97287066 3.88070062,4.40933754 5.37416358,4.40933754 C6.0615463,4.40933754 6.70641049,4.53917981 7.30875617,4.79798107 C7.91198765,5.05678233 8.46915741,5.44542587 8.98115123,5.96302839 L8.98115123,4.70347003 L8.98203704,4.70347003 Z M5.96056481,7.05564669 C5.07210494,7.05564669 4.33423148,7.36921136 3.74605864,7.99545741 C3.1587716,8.62170347 2.86468519,9.42548896 2.86468519,10.4050473 C2.86468519,11.3916719 3.16408642,12.2042902 3.76200309,12.8411356 C4.35991975,13.4779811 5.09690741,13.7968454 5.97119444,13.7968454 C6.87382716,13.7968454 7.62233025,13.4832808 8.2167037,12.8570347 C8.81107716,12.2307886 9.10870679,11.4102208 9.10870679,10.3944479 C9.10870679,9.4007571 8.81107716,8.59520505 8.2167037,7.97955836 C7.62144444,7.36391167 6.86939815,7.05564669 5.96056481,7.05564669 Z" id="Shape"/>
                    <path d="M15.8842099,0 C16.3882315,0 16.8205031,0.181955836 17.1810247,0.545867508 C17.5415463,0.90977918 17.7213642,1.35053628 17.7213642,1.86902208 C17.7213642,2.38044164 17.5433179,2.81589905 17.1863395,3.1762776 C16.8293611,3.53665615 16.4024043,3.71684543 15.9054691,3.71684543 C15.3943611,3.71684543 14.9585463,3.53312303 14.5980247,3.16567823 C14.2375031,2.79823344 14.0576852,2.35217666 14.0576852,1.82662461 C14.0576852,1.32227129 14.2357315,0.892113565 14.5927099,0.535268139 C14.9496883,0.178422713 15.3801883,0 15.8842099,0 Z M14.4465525,4.70347003 L17.3209815,4.70347003 L17.3209815,16.1269401 L14.4465525,16.1269401 L14.4465525,4.70347003 Z" id="Shape"/>
                    <path d="M19.2591173,4.70347003 L21.7234198,4.70347003 L21.7234198,6.14233438 C21.9900463,5.57526814 22.3443673,5.14511041 22.7872685,4.85097792 C23.229284,4.55684543 23.7138179,4.41022082 24.2399846,4.41022082 C24.6120216,4.41022082 25.0017747,4.50826498 25.4092438,4.70435331 L24.5145833,7.17135647 C24.1779784,7.00353312 23.8998364,6.91962145 23.6828148,6.91962145 C23.2407994,6.91962145 22.8669907,7.19255521 22.5613889,7.73842271 C22.255787,8.28429022 22.103429,9.35570978 22.103429,10.9509148 L22.1140586,11.5073817 L22.1140586,16.1269401 L19.2608889,16.1269401 L19.2608889,4.70347003 L19.2591173,4.70347003 Z" id="Path"/>
                    <path d="M34.587929,4.70347003 L37.462358,4.70347003 L37.462358,16.1269401 L34.587929,16.1269401 L34.587929,14.9194953 C34.027216,15.4512303 33.4638457,15.8345741 32.8995895,16.0695268 C32.3353333,16.3035962 31.7232438,16.4210726 31.0642068,16.4210726 C29.5849167,16.4210726 28.3049321,15.8487066 27.2251389,14.7039748 C26.1453457,13.5592429 25.605892,12.1371609 25.605892,10.4359621 C25.605892,8.67205047 26.1285154,7.22700315 27.1728765,6.09993691 C28.2172377,4.97287066 29.4865926,4.40933754 30.9800556,4.40933754 C31.6674383,4.40933754 32.3123025,4.53917981 32.9146481,4.79798107 C33.5178796,5.05678233 34.0750494,5.44542587 34.5870432,5.96302839 L34.5870432,4.70347003 L34.587929,4.70347003 Z M31.5664568,7.05564669 C30.6779969,7.05564669 29.9401235,7.36921136 29.3519506,7.99545741 C28.7637778,8.62170347 28.4705772,9.42548896 28.4705772,10.4050473 C28.4705772,11.3916719 28.7690926,12.2042902 29.3678951,12.8411356 C29.9658117,13.4779811 30.7019136,13.7968454 31.5770864,13.7968454 C32.4797191,13.7968454 33.2282222,13.4832808 33.8225957,12.8570347 C34.4169691,12.2307886 34.7145988,11.4102208 34.7145988,10.3944479 C34.7145988,9.4007571 34.4169691,8.59520505 33.8225957,7.97955836 C33.2282222,7.36391167 32.4761759,7.05564669 31.5664568,7.05564669 Z" id="Shape"/>
                    <polygon id="Path" points="40.0533302 0.294132492 42.9277593 0.294132492 42.9277593 16.1278233 40.0533302 16.1278233"/>
                    <path d="M50.9194691,4.41022082 C52.0001481,4.41022082 53.0161636,4.67962145 53.9675154,5.21842271 C54.9188673,5.75722397 55.6611698,6.48858044 56.1944228,7.41249211 C56.7276759,8.33640379 56.9951883,9.33362776 56.9951883,10.4050473 C56.9951883,11.4826498 56.7267901,12.4913565 56.1899938,13.4285174 C55.6531975,14.3665615 54.9215247,15.0996845 53.9949753,15.6278864 C53.0684259,16.1560883 52.0470957,16.4201893 50.9309846,16.4201893 C49.2887068,16.4201893 47.8864815,15.837224 46.7243086,14.6721767 C45.5621358,13.5062461 44.9819352,12.0912303 44.9819352,10.4253628 C44.9819352,8.64025237 45.6383148,7.15280757 46.9510741,5.96302839 C48.1008457,4.92782334 49.4242346,4.41022082 50.9194691,4.41022082 Z M50.9673025,7.10864353 C50.0744136,7.10864353 49.3303395,7.41867508 48.7368519,8.03785489 C48.1433642,8.6570347 47.8457346,9.45022082 47.8457346,10.4156467 C47.8457346,11.4093375 48.1389352,12.2148896 48.7262222,12.8305363 C49.3135093,13.4470662 50.0566975,13.7544479 50.9566728,13.7544479 C51.8566481,13.7544479 52.6051512,13.4435331 53.2030679,12.8199369 C53.8009846,12.197224 54.0995,11.395205 54.0995,10.4156467 C54.0995,9.43608833 53.8054136,8.63936909 53.2190123,8.02725552 C52.6317253,7.41425868 51.8814506,7.10864353 50.9673025,7.10864353 Z" id="Shape"/>
                </g>
            </g>
        </g>
    </g>
</svg>