<svg xmlns="http://www.w3.org/2000/svg" width="260" height="80" viewBox="0 0 260 80" role="img" aria-label="Vala Tech 2026 LLC">
  <defs>
    <linearGradient id="iconGrad" x1="0%" y1="0%" x2="100%" y2="100%">
      <stop offset="0%" stop-color="#be264b"/>
      <stop offset="100%" stop-color="#1d407c"/>
    </linearGradient>
  </defs>

  <!-- Icon: stylized globe/wing shape replicating original -->
  <g transform="translate(4, 8)">
    <!-- Red arc top-left -->
    <path d="M32 2 C14 2 2 14 2 32 C2 42 7 51 14 57 C11 48 13 37 20 29 C26 22 34 18 44 17 C44 8 39 2 32 2 Z" fill="#be264b"/>
    <!-- Blue arc bottom-right -->
    <path d="M26 18 C33 21 37 28 36 37 C35 46 28 53 19 55 C26 62 37 64 48 60 C59 56 66 45 64 34 C60 39 54 43 47 44 C41 45 34 44 26 41 Z" fill="#1d407c"/>
  </g>

  <!-- Company name -->
  <text x="76" y="38" font-family="Helvetica Neue, Arial, sans-serif" font-size="22" font-weight="700" fill="#1d407c" letter-spacing="1">Vala Tech</text>
  <text x="76" y="58" font-family="Helvetica Neue, Arial, sans-serif" font-size="13" font-weight="400" fill="#64748b" letter-spacing="4">2026 LLC</text>
</svg>
