<?xml version="1.0" encoding="UTF-8" standalone="no"?>
<!DOCTYPE svg PUBLIC "-//W3C//DTD SVG 1.1//EN" "http://www.w3.org/Graphics/SVG/1.1/DTD/svg11.dtd">
<svg xmlns="http://www.w3.org/2000/svg" version="1.1" viewBox="0.00 0.00 200.00 60.00">
<g stroke-width="2.00" fill="none" stroke-linecap="butt">
<path stroke="#70396b" vector-effect="non-scaling-stroke" d="
  M 25.29 13.04
  Q 17.67 20.78 13.90 31.60
  Q 11.05 39.75 11.90 47.89"
/>
<path stroke="#265c9e" vector-effect="non-scaling-stroke" d="
  M 23.71 39.90
  Q 23.64 40.15 23.87 40.46
  A 1.03 0.99 78.3 0 0 24.41 40.83
  C 27.20 41.55 29.96 42.88 32.72 43.28
  Q 39.59 44.26 46.47 42.22"
/>
<path stroke="#3e577d" vector-effect="non-scaling-stroke" d="
  M 135.61 45.21
  L 135.63 44.04"
/>
</g>
<path fill="#be264b" d="
  M 25.29 13.04
  Q 17.67 20.78 13.90 31.60
  Q 11.05 39.75 11.90 47.89
  C 1.99 40.22 -1.23 27.50 4.25 16.33
  C 9.94 4.72 24.68 -1.23 37.03 3.95
  A 0.15 0.15 0.0 0 1 36.99 4.24
  Q 32.47 4.89 29.35 8.35
  Q 27.07 10.88 25.29 13.04
  Z"
/>
<path fill="#1d407c" d="
  M 41.79 13.80
  Q 41.50 13.32 40.34 12.77
  A 0.37 0.36 -44.6 0 1 40.35 12.11
  Q 41.48 11.60 41.73 10.50
  A 0.20 0.20 0.0 0 1 42.03 10.37
  L 44.54 11.82
  A 0.54 0.54 0.0 0 1 44.48 12.79
  Q 43.41 13.22 42.68 13.91
  A 0.58 0.57 -37.6 0 1 41.79 13.80
  Z"
/>
<rect fill="#1d407c" x="-1.81" y="-11.21" transform="translate(100.49,22.97) rotate(0.1)" width="3.62" height="22.42" rx="0.51"/>
<path fill="#1d407c" d="
  M 184.31 19.58
  C 188.59 17.20 193.82 17.71 194.22 23.53
  Q 194.46 27.00 194.30 33.65
  A 0.56 0.56 0.0 0 1 193.74 34.20
  L 191.36 34.20
  A 0.59 0.59 0.0 0 1 190.77 33.61
  L 190.77 24.25
  A 2.90 2.90 0.0 0 0 187.36 21.39
  L 186.87 21.48
  A 3.72 3.72 0.0 0 0 183.75 25.15
  L 183.75 33.69
  A 0.52 0.52 0.0 0 1 183.23 34.21
  L 180.76 34.21
  A 0.56 0.56 0.0 0 1 180.20 33.65
  L 180.20 12.47
  A 0.71 0.71 0.0 0 1 180.91 11.76
  L 183.11 11.76
  A 0.63 0.62 0.0 0 1 183.74 12.38
  L 183.74 19.24
  A 0.39 0.38 75.5 0 0 184.31 19.58
  Z"
/>
<path fill="#1d407c" d="
  M 69.07 29.12
  Q 69.29 29.12 69.36 28.90
  Q 71.93 21.08 74.54 13.64
  A 1.11 1.10 -80.3 0 1 75.58 12.90
  L 78.39 12.90
  A 0.47 0.47 0.0 0 1 78.83 13.53
  L 71.59 33.54
  A 0.96 0.96 0.0 0 1 70.81 34.17
  Q 70.72 34.18 69.10 34.19
  Q 67.49 34.20 67.39 34.19
  A 0.96 0.96 0.0 0 1 66.61 33.57
  L 59.13 13.65
  A 0.47 0.47 0.0 0 1 59.56 13.01
  L 62.37 12.98
  A 1.11 1.10 79.6 0 1 63.42 13.71
  Q 66.12 21.11 68.78 28.90
  Q 68.86 29.12 69.07 29.12
  Z"
/>
<path fill="#1d407c" d="
  M 129.82 12.96
  L 145.66 12.96
  A 0.47 0.47 0.0 0 1 146.13 13.43
  L 146.13 15.59
  A 0.47 0.47 0.0 0 1 145.66 16.06
  L 139.72 16.06
  A 0.47 0.47 0.0 0 0 139.25 16.53
  L 139.25 33.70
  A 0.47 0.47 0.0 0 1 138.78 34.17
  L 135.95 34.17
  A 0.47 0.47 0.0 0 1 135.48 33.70
  L 135.48 16.54
  A 0.47 0.47 0.0 0 0 135.01 16.07
  L 129.82 16.07
  A 0.47 0.47 0.0 0 1 129.35 15.60
  L 129.35 13.43
  A 0.47 0.47 0.0 0 1 129.82 12.96
  Z"
/>
<path fill="#224c8b" d="
  M 25.29 13.04
  Q 24.06 18.94 26.35 21.64
  C 32.13 28.43 43.34 20.65 47.76 15.85
  A 0.34 0.34 0.0 0 1 48.33 16.17
  C 45.09 27.69 35.35 36.10 23.85 38.96
  A 0.45 0.45 0.0 0 0 23.53 39.55
  Q 23.60 39.75 23.71 39.90
  Q 23.64 40.15 23.87 40.46
  A 1.03 0.99 78.3 0 0 24.41 40.83
  C 27.20 41.55 29.96 42.88 32.72 43.28
  Q 39.59 44.26 46.47 42.22
  C 38.53 53.60 23.12 55.28 11.90 47.89
  Q 11.05 39.75 13.90 31.60
  Q 17.67 20.78 25.29 13.04
  Z"
/>
<path fill="#1d407c" d="
  M 94.39 33.44
  A 0.70 0.69 -0.4 0 1 93.69 34.14
  L 92.11 34.14
  A 0.77 0.76 -5.5 0 1 91.36 33.53
  Q 91.23 32.88 91.13 32.73
  A 0.57 0.56 49.9 0 0 90.27 32.65
  Q 87.82 35.04 84.00 34.22
  C 80.83 33.53 79.03 30.36 80.74 27.47
  C 82.57 24.37 86.87 24.32 90.24 24.43
  A 0.54 0.53 79.9 0 0 90.75 23.69
  C 89.28 20.00 85.49 20.67 82.82 22.51
  A 0.93 0.92 58.0 0 1 81.49 22.20
  L 81.09 21.49
  A 1.06 1.05 56.1 0 1 81.35 20.14
  Q 84.17 17.95 88.77 18.26
  C 92.83 18.54 94.23 21.38 94.30 25.25
  Q 94.39 30.23 94.39 33.44
  Z
  M 89.83 26.83
  Q 86.48 26.45 84.32 28.07
  A 1.91 1.77 36.1 0 0 84.94 31.23
  Q 88.90 32.76 90.76 28.42
  A 1.15 1.15 0.0 0 0 89.83 26.83
  Z"
/>
<path fill="#1d407c" d="
  M 119.92 33.56
  A 0.70 0.69 0.2 0 1 119.21 34.25
  L 117.63 34.23
  A 0.77 0.76 -4.9 0 1 116.88 33.62
  Q 116.76 32.96 116.66 32.81
  A 0.57 0.56 50.5 0 0 115.80 32.72
  Q 113.32 35.09 109.51 34.23
  C 106.34 33.51 104.57 30.32 106.31 27.44
  C 108.17 24.35 112.48 24.35 115.85 24.49
  A 0.54 0.53 80.5 0 0 116.37 23.76
  C 114.94 20.05 111.13 20.68 108.44 22.49
  A 0.93 0.93 0.0 0 1 107.11 22.17
  L 106.72 21.46
  A 1.06 1.05 56.6 0 1 106.99 20.11
  Q 109.84 17.94 114.44 18.30
  C 118.51 18.62 119.88 21.48 119.91 25.35
  Q 119.95 30.34 119.92 33.56
  Z
  M 115.44 26.89
  Q 112.14 26.54 110.02 28.14
  A 1.88 1.74 35.8 0 0 110.65 31.25
  Q 114.55 32.74 116.37 28.46
  A 1.13 1.13 0.0 0 0 115.44 26.89
  Z"
/>
<path fill="#1d407c" d="
  M 161.12 26.89
  A 0.58 0.57 1.0 0 1 160.54 27.44
  L 150.51 27.44
  A 0.86 0.86 0.0 0 0 149.80 28.79
  Q 153.12 33.59 158.42 30.29
  A 0.45 0.44 43.4 0 1 158.89 30.28
  L 160.17 31.02
  A 0.75 0.74 -51.0 0 1 160.29 32.22
  Q 156.86 35.34 151.78 34.19
  C 144.86 32.61 144.31 23.43 149.30 19.57
  C 152.09 17.41 157.57 17.70 159.71 21.14
  Q 161.25 23.61 161.12 26.89
  Z
  M 150.00 24.85
  L 157.40 24.79
  A 0.14 0.14 0.0 0 0 157.54 24.65
  L 157.54 24.58
  A 3.76 3.57 -0.4 0 0 153.76 21.04
  L 153.60 21.04
  A 3.76 3.57 -0.4 0 0 149.86 24.64
  L 149.86 24.71
  A 0.14 0.14 0.0 0 0 150.00 24.85
  Z"
/>
<path fill="#1d407c" d="
  M 167.06 26.41
  C 167.12 30.95 171.31 32.98 174.90 30.38
  A 1.48 1.41 -90.0 0 1 176.87 32.44
  Q 176.21 33.42 174.97 33.83
  C 169.06 35.76 163.41 33.09 163.32 26.46
  C 163.23 19.83 168.81 17.01 174.77 18.78
  Q 176.02 19.16 176.71 20.12
  A 1.48 1.41 88.4 0 1 174.80 22.23
  C 171.13 19.73 167.00 21.87 167.06 26.41
  Z"
/>
<path fill="#296cb0" d="
  M 46.47 42.22
  Q 39.59 44.26 32.72 43.28
  C 29.96 42.88 27.20 41.55 24.41 40.83
  A 1.03 0.99 78.3 0 1 23.87 40.46
  Q 23.64 40.15 23.71 39.90
  Q 40.94 38.67 50.86 24.68
  A 0.29 0.29 0.0 0 1 51.39 24.83
  Q 51.81 34.32 46.47 42.22
  Z"
/>
<path fill="#5e6d7d" d="
  M 70.84 50.99
  L 74.33 50.99
  A 0.52 0.52 0.0 0 1 74.85 51.51
  L 74.85 51.79
  A 0.49 0.48 -90.0 0 1 74.37 52.28
  L 67.97 52.28
  A 0.38 0.38 0.0 0 1 67.62 51.76
  C 68.16 50.41 70.51 48.73 72.30 46.91
  A 1.70 1.69 -41.2 0 0 72.45 44.71
  Q 71.36 43.27 68.70 45.02
  A 0.43 0.43 0.0 0 1 68.03 44.66
  L 68.03 44.14
  A 0.55 0.53 76.5 0 1 68.31 43.66
  Q 71.39 41.99 73.44 43.46
  C 76.66 45.79 71.97 49.19 70.63 50.44
  A 0.32 0.31 -66.2 0 0 70.84 50.99
  Z"
/>
<path fill="#5e6d7d" d="
  M 83.6183 42.7414
  A 4.84 4.18 -88.6 0 1 87.6788 47.6821
  A 4.84 4.18 -88.6 0 1 83.3817 52.4186
  A 4.84 4.18 -88.6 0 1 79.3212 47.4779
  A 4.84 4.18 -88.6 0 1 83.6183 42.7414
  Z
  M 83.5609 44.0405
  A 3.49 2.58 -89.0 0 0 80.9204 47.4850
  A 3.49 2.58 -89.0 0 0 83.4391 51.0195
  A 3.49 2.58 -89.0 0 0 86.0796 47.5750
  A 3.49 2.58 -89.0 0 0 83.5609 44.0405
  Z"
/>
<path fill="#5e6d7d" d="
  M 94.32 50.47
  A 0.32 0.31 -67.1 0 0 94.54 51.02
  L 98.03 50.97
  A 0.52 0.52 0.0 0 1 98.56 51.48
  L 98.56 51.76
  A 0.49 0.48 89.2 0 1 98.09 52.26
  L 91.68 52.35
  A 0.38 0.38 0.0 0 1 91.33 51.84
  C 91.85 50.48 94.17 48.76 95.94 46.91
  A 1.70 1.69 -42.1 0 0 96.06 44.71
  Q 94.95 43.29 92.31 45.08
  A 0.43 0.43 0.0 0 1 91.63 44.72
  L 91.63 44.20
  A 0.55 0.53 75.7 0 1 91.90 43.72
  Q 94.96 42.00 97.03 43.45
  C 100.29 45.73 95.64 49.20 94.32 50.47
  Z"
/>
<path fill="#5e6d7d" d="
  M 105.43 46.74
  C 110.70 43.79 113.24 51.26 108.17 52.17
  C 100.52 53.55 102.17 39.93 110.07 43.38
  A 0.49 0.49 0.0 0 1 110.33 44.00
  L 110.20 44.38
  A 0.46 0.46 0.0 0 1 109.53 44.62
  Q 106.62 42.89 104.91 46.24
  A 0.38 0.38 0.0 0 0 105.43 46.74
  Z
  M 109.5491 49.0944
  A 2.35 1.78 -1.6 0 0 107.1503 47.3807
  A 2.35 1.78 -1.6 0 0 104.8509 49.2256
  A 2.35 1.78 -1.6 0 0 107.2497 50.9393
  A 2.35 1.78 -1.6 0 0 109.5491 49.0944
  Z"
/>
<path fill="#5e6d7d" d="
  M 123.64 43.50
  A 0.70 0.70 0.0 0 1 124.34 42.80
  L 124.67 42.80
  A 0.54 0.53 -90.0 0 1 125.20 43.34
  L 125.20 50.29
  A 0.57 0.57 0.0 0 0 125.77 50.86
  L 130.26 50.86
  A 0.52 0.52 0.0 0 1 130.78 51.38
  L 130.78 51.67
  A 0.57 0.57 0.0 0 1 130.21 52.24
  L 124.33 52.24
  A 0.69 0.69 0.0 0 1 123.64 51.55
  L 123.64 43.50
  Z"
/>
<path fill="#5e6d7d" d="
  M 147.47 47.58
  C 147.53 50.94 151.00 51.70 153.50 49.94
  A 0.53 0.53 0.0 0 1 154.33 50.43
  Q 154.22 51.49 152.89 51.90
  C 149.61 52.90 145.97 51.37 145.90 47.61
  C 145.83 43.84 149.42 42.18 152.74 43.07
  Q 154.08 43.43 154.22 44.48
  A 0.53 0.53 0.0 0 1 153.41 45.00
  C 150.85 43.33 147.41 44.21 147.47 47.58
  Z"
/>
<path fill="#5e6d7d" d="
  M 135.61 45.21
  L 135.63 44.04
  Q 135.60 43.49 135.79 43.17
  A 0.70 0.70 0.0 0 1 137.10 43.50
  L 137.10 50.37
  A 0.50 0.50 0.0 0 0 137.60 50.87
  L 142.12 50.87
  A 0.54 0.54 0.0 0 1 142.66 51.41
  L 142.66 51.70
  A 0.57 0.56 0.0 0 1 142.09 52.26
  L 136.29 52.26
  A 0.66 0.66 0.0 0 1 135.63 51.60
  L 135.61 45.21
  Z"
/>
<path fill="#1d407c" d="
  M 135.63 44.04
  L 135.61 45.21
  L 135.63 44.04
  Z"
/>
</svg>
