<svg xmlns="http://www.w3.org/2000/svg" xmlns:xlink="http://www.w3.org/1999/xlink" width="2000" zoomAndPan="magnify" viewBox="0 0 1500 1499.999933" height="2000" preserveAspectRatio="xMidYMid meet" version="1.0"><defs><g/><clipPath id="3efd419911"><path d="M 0 534.121094 L 477.75 534.121094 L 477.75 848.371094 L 0 848.371094 Z M 0 534.121094 " clip-rule="nonzero"/></clipPath><clipPath id="f9a88db8c3"><path d="M 0.257812 0.480469 L 477 0.480469 L 477 314.371094 L 0.257812 314.371094 Z M 0.257812 0.480469 " clip-rule="nonzero"/></clipPath><clipPath id="97eb2260fd"><rect x="0" width="478" y="0" height="315"/></clipPath><clipPath id="bf3878abea"><rect x="0" width="1060" y="0" height="284"/></clipPath><clipPath id="44b2a89c5f"><rect x="0" width="262" y="0" height="154"/></clipPath><clipPath id="3283556009"><path d="M 1307.757812 670.640625 L 1352.050781 670.640625 L 1352.050781 714.933594 L 1307.757812 714.933594 Z M 1307.757812 670.640625 " clip-rule="nonzero"/></clipPath><clipPath id="ec94d3caca"><path d="M 1329.90625 670.640625 C 1317.671875 670.640625 1307.757812 680.558594 1307.757812 692.789062 C 1307.757812 705.019531 1317.671875 714.933594 1329.90625 714.933594 C 1342.136719 714.933594 1352.050781 705.019531 1352.050781 692.789062 C 1352.050781 680.558594 1342.136719 670.640625 1329.90625 670.640625 Z M 1329.90625 670.640625 " clip-rule="nonzero"/></clipPath><clipPath id="c8585e9220"><path d="M 0.757812 0.640625 L 45.050781 0.640625 L 45.050781 44.933594 L 0.757812 44.933594 Z M 0.757812 0.640625 " clip-rule="nonzero"/></clipPath><clipPath id="a77f9d2b3b"><path d="M 22.90625 0.640625 C 10.671875 0.640625 0.757812 10.558594 0.757812 22.789062 C 0.757812 35.019531 10.671875 44.933594 22.90625 44.933594 C 35.136719 44.933594 45.050781 35.019531 45.050781 22.789062 C 45.050781 10.558594 35.136719 0.640625 22.90625 0.640625 Z M 22.90625 0.640625 " clip-rule="nonzero"/></clipPath><clipPath id="12c1896493"><rect x="0" width="46" y="0" height="45"/></clipPath><clipPath id="2f90f83dbd"><path d="M 1372.871094 896.5625 L 1388.246094 896.5625 L 1388.246094 911.9375 L 1372.871094 911.9375 Z M 1372.871094 896.5625 " clip-rule="nonzero"/></clipPath><clipPath id="7e8918b9f1"><path d="M 1380.558594 896.5625 C 1376.3125 896.5625 1372.871094 900.003906 1372.871094 904.25 C 1372.871094 908.496094 1376.3125 911.9375 1380.558594 911.9375 C 1384.804688 911.9375 1388.246094 908.496094 1388.246094 904.25 C 1388.246094 900.003906 1384.804688 896.5625 1380.558594 896.5625 Z M 1380.558594 896.5625 " clip-rule="nonzero"/></clipPath><clipPath id="5a0ecf3a85"><path d="M 0.871094 0.5625 L 16.246094 0.5625 L 16.246094 15.9375 L 0.871094 15.9375 Z M 0.871094 0.5625 " clip-rule="nonzero"/></clipPath><clipPath id="a5414220f0"><path d="M 8.558594 0.5625 C 4.3125 0.5625 0.871094 4.003906 0.871094 8.25 C 0.871094 12.496094 4.3125 15.9375 8.558594 15.9375 C 12.804688 15.9375 16.246094 12.496094 16.246094 8.25 C 16.246094 4.003906 12.804688 0.5625 8.558594 0.5625 Z M 8.558594 0.5625 " clip-rule="nonzero"/></clipPath><clipPath id="b14c57216a"><rect x="0" width="17" y="0" height="16"/></clipPath><clipPath id="8383447499"><path d="M 856.527344 670.640625 L 900.820312 670.640625 L 900.820312 714.933594 L 856.527344 714.933594 Z M 856.527344 670.640625 " clip-rule="nonzero"/></clipPath><clipPath id="ba4538434a"><path d="M 878.675781 670.640625 C 866.445312 670.640625 856.527344 680.558594 856.527344 692.789062 C 856.527344 705.019531 866.445312 714.933594 878.675781 714.933594 C 890.90625 714.933594 900.820312 705.019531 900.820312 692.789062 C 900.820312 680.558594 890.90625 670.640625 878.675781 670.640625 Z M 878.675781 670.640625 " clip-rule="nonzero"/></clipPath><clipPath id="05032c611f"><path d="M 0.527344 0.640625 L 44.820312 0.640625 L 44.820312 44.933594 L 0.527344 44.933594 Z M 0.527344 0.640625 " clip-rule="nonzero"/></clipPath><clipPath id="68045d1f0f"><path d="M 22.675781 0.640625 C 10.445312 0.640625 0.527344 10.558594 0.527344 22.789062 C 0.527344 35.019531 10.445312 44.933594 22.675781 44.933594 C 34.90625 44.933594 44.820312 35.019531 44.820312 22.789062 C 44.820312 10.558594 34.90625 0.640625 22.675781 0.640625 Z M 22.675781 0.640625 " clip-rule="nonzero"/></clipPath><clipPath id="0ed932dfcf"><rect x="0" width="45" y="0" height="45"/></clipPath><clipPath id="37748efd88"><path d="M 53.753906 607.691406 L 385.253906 607.691406 L 385.253906 939 L 53.753906 939 Z M 53.753906 607.691406 " clip-rule="nonzero"/></clipPath></defs><g clip-path="url(#3efd419911)"><g transform="matrix(1, 0, 0, 1, 0, 534)"><g clip-path="url(#97eb2260fd)"><g clip-path="url(#f9a88db8c3)"><path fill="#cc0000" d="M 311.089844 14.703125 C 404.167969 47.214844 472.550781 133.988281 476.6875 238.472656 C 477.726562 264.710938 474.625 290.15625 467.988281 314.175781 L 467.207031 313.910156 C 473.753906 290.238281 476.738281 265.136719 475.582031 239.234375 C 475.328125 233.597656 474.871094 228.015625 474.242188 222.484375 C 455.160156 225.554688 435.746094 227.519531 416.058594 228.371094 C 414.257812 250.28125 410.164062 271.796875 404.121094 292.476562 L 403.554688 292.285156 C 409.578125 271.695312 413.582031 250.261719 415.246094 228.410156 C 399.097656 229.082031 382.765625 228.996094 366.296875 228.097656 C 355.28125 227.496094 344.382812 226.539062 333.582031 225.25 C 330.414062 238.570312 326.769531 251.792969 322.6875 264.808594 L 322.363281 264.695312 C 326.4375 251.707031 330.074219 238.496094 333.214844 225.199219 C 299.253906 221.121094 266.402344 213.703125 234.984375 203.289062 L 218.4375 250.285156 L 234.203125 203.023438 C 203.546875 192.808594 174.242188 179.753906 146.605469 164.167969 C 141.433594 175.777344 136.5625 187.765625 132.066406 200.035156 L 131.742188 199.925781 C 136.246094 187.636719 141.121094 175.625 146.28125 163.984375 C 124.03125 151.414062 102.855469 137.214844 82.910156 121.550781 C 72.617188 137.988281 63.707031 155.710938 56.460938 174.347656 L 55.851562 174.140625 C 63.136719 155.421875 72.03125 137.601562 82.28125 121.046875 C 68.785156 110.40625 55.84375 99.097656 43.527344 87.167969 C 25.769531 107.320312 11.371094 130.398438 1.160156 155.554688 L 0.355469 155.28125 C 35.777344 68.097656 119.644531 5.097656 219.796875 1.136719 C 244.996094 0.140625 269.457031 2.957031 292.640625 9.0625 C 294.625 9.53125 296.585938 10.046875 298.539062 10.605469 C 300.050781 10.96875 301.535156 11.417969 302.984375 11.945312 C 303.097656 11.988281 303.207031 12.042969 303.324219 12.085938 C 304.355469 12.421875 305.394531 12.75 306.417969 13.113281 C 306.621094 13.183594 306.816406 13.269531 307.019531 13.339844 C 308.378906 13.789062 309.742188 14.230469 311.089844 14.699219 Z M 302.863281 16.222656 C 302.273438 16.035156 301.679688 15.851562 301.085938 15.667969 L 291.101562 43.992188 C 305.832031 48.734375 320.675781 52.40625 335.550781 55.046875 C 328.148438 35.273438 317.027344 21.855469 302.863281 16.226562 Z M 297.152344 14.476562 C 296.792969 14.375 296.425781 14.285156 296.066406 14.179688 C 285.824219 12.023438 274.242188 13.539062 261.492188 19.238281 C 256.96875 21.257812 252.429688 23.761719 247.878906 26.6875 C 260.097656 32.585938 272.785156 37.816406 285.933594 42.285156 C 286.515625 42.484375 287.097656 42.660156 287.679688 42.855469 Z M 319.8125 23.074219 C 327.425781 30.851562 333.597656 41.785156 338.117188 55.480469 C 347.5625 57.082031 357.023438 58.265625 366.464844 59.050781 C 353.039062 43.796875 337.316406 31.609375 319.8125 23.074219 Z M 278.503906 10.417969 C 264.957031 8.5 250.773438 8.5 236.101562 10.609375 C 231.578125 11.257812 227.09375 12.113281 222.632812 13.136719 C 230.050781 17.539062 237.675781 21.6875 245.503906 25.539062 C 251.203125 21.558594 256.90625 18.246094 262.558594 15.671875 C 268.097656 13.144531 273.417969 11.40625 278.5 10.417969 Z M 344.21875 33.523438 C 353.96875 40.886719 362.957031 49.558594 371.019531 59.410156 C 375.496094 59.722656 379.960938 59.929688 384.425781 60.0625 C 371.957031 49.984375 358.492188 41.082031 344.21875 33.523438 Z M 250.011719 5.636719 C 239.792969 4.722656 229.414062 4.402344 218.90625 4.765625 C 215.914062 4.871094 212.925781 5.039062 209.964844 5.246094 C 212.867188 7.148438 215.808594 9.015625 218.78125 10.835938 C 224.820312 9.222656 230.929688 7.9375 237.078125 7.015625 C 241.433594 6.359375 245.746094 5.921875 250.011719 5.636719 Z M 388.332031 63.277344 C 383.441406 63.199219 378.539062 63.015625 373.632812 62.722656 C 382.820312 74.53125 390.757812 87.917969 397.234375 102.652344 C 406.324219 102.3125 415.359375 101.644531 424.320312 100.652344 C 413.664062 86.980469 401.589844 74.449219 388.332031 63.28125 Z M 204.835938 5.65625 C 184.34375 7.511719 164.652344 11.828125 146.027344 18.3125 C 152.648438 23.746094 159.472656 28.984375 166.480469 33.96875 C 181.824219 24.355469 197.96875 16.894531 214.636719 11.996094 C 211.328125 9.933594 208.054688 7.824219 204.835938 5.65625 Z M 369.382812 62.464844 C 369.378906 62.460938 369.363281 62.464844 369.359375 62.457031 C 359.316406 61.726562 349.25 60.527344 339.179688 58.871094 C 342.835938 71.023438 345.273438 85.183594 346.367188 101.082031 C 362.589844 102.683594 378.722656 103.21875 394.691406 102.730469 C 387.726562 87.78125 379.222656 74.273438 369.382812 62.464844 Z M 218.230469 14.207031 C 200.96875 18.65625 184.246094 25.824219 168.378906 35.316406 C 181.277344 44.367188 194.820312 52.613281 208.9375 60.03125 C 219.984375 46.960938 231.296875 35.996094 242.617188 27.636719 C 234.253906 23.46875 226.117188 18.988281 218.230469 14.207031 Z M 336.753906 58.457031 C 321.15625 55.769531 305.566406 51.957031 290.082031 46.960938 L 275.878906 87.261719 C 287.34375 90.667969 299.070312 93.574219 311.054688 95.917969 C 322.417969 98.136719 333.777344 99.796875 345.085938 100.957031 C 343.714844 84.808594 340.875 70.546875 336.757812 58.457031 Z M 244.832031 28.703125 C 233.148438 36.703125 221.460938 47.53125 210.050781 60.628906 C 229.976562 71.011719 251.054688 79.679688 273.152344 86.433594 L 286.703125 45.839844 C 286.128906 45.644531 285.554688 45.472656 284.980469 45.277344 C 271.070312 40.550781 257.6875 34.988281 244.832031 28.699219 Z M 425.542969 102.226562 C 416.394531 103.191406 407.167969 103.8125 397.890625 104.109375 C 405.40625 121.554688 410.871094 140.855469 414.015625 161.625 C 428.582031 160.839844 443.03125 159.3125 457.316406 157.082031 C 449.113281 137.355469 438.371094 118.960938 425.542969 102.226562 Z M 144.546875 18.828125 C 126.648438 25.1875 109.769531 33.550781 94.148438 43.628906 C 103.40625 52.46875 113.089844 60.910156 123.160156 68.929688 C 136.292969 55.679688 150.472656 44.128906 165.4375 34.632812 C 158.285156 29.585938 151.304688 24.328125 144.546875 18.828125 Z M 395.367188 104.175781 C 379.210938 104.582031 362.878906 103.976562 346.453125 102.273438 C 347.5625 119.539062 347.101562 138.816406 344.929688 159.78125 C 367.648438 162.226562 390.257812 162.832031 412.605469 161.703125 C 409.175781 140.875 403.308594 121.570312 395.367188 104.175781 Z M 167.316406 35.949219 C 152.042969 45.207031 137.59375 56.617188 124.226562 69.78125 C 140.710938 82.828125 158.234375 94.742188 176.738281 105.347656 C 186.800781 88.789062 197.410156 73.773438 208.289062 60.808594 C 194.023438 53.351562 180.359375 45.03125 167.316406 35.949219 Z M 345.167969 102.128906 C 334.199219 100.953125 323.183594 99.320312 312.15625 97.164062 C 299.679688 94.726562 287.488281 91.691406 275.558594 88.125 L 256.960938 140.921875 C 266.699219 144.09375 276.609375 146.941406 286.703125 149.453125 C 305.878906 154.21875 325.113281 157.605469 344.253906 159.695312 C 346.285156 138.644531 346.546875 119.335938 345.167969 102.128906 Z M 209.382812 61.371094 C 198.320312 74.171875 187.53125 89.109375 177.3125 105.664062 C 201.65625 119.570312 227.664062 131.246094 255.152344 140.332031 L 272.855469 87.304688 C 250.652344 80.488281 229.441406 71.773438 209.382812 61.371094 Z M 458.175781 159.246094 C 443.710938 161.398438 429.066406 162.859375 414.304688 163.542969 C 416.789062 180.804688 417.667969 199.0625 416.742188 218.105469 C 416.601562 221.019531 416.40625 223.914062 416.183594 226.816406 C 435.75 225.855469 455.0625 223.746094 474.035156 220.550781 C 471.417969 199.125 465.992188 178.566406 458.175781 159.246094 Z M 92.78125 44.496094 C 75.167969 56.019531 59.210938 69.75 45.25 85.257812 C 57.382812 97.203125 70.144531 108.523438 83.453125 119.1875 C 94.855469 101.058594 107.882812 84.457031 122.175781 69.882812 C 111.980469 61.839844 102.167969 53.359375 92.78125 44.496094 Z M 412.90625 163.597656 C 390.421875 164.570312 367.65625 163.800781 344.78125 161.203125 C 343.714844 171.164062 342.273438 181.492188 340.417969 192.167969 C 338.574219 202.808594 336.378906 213.453125 333.882812 224.039062 C 344.035156 225.222656 354.289062 226.089844 364.636719 226.65625 C 381.703125 227.585938 398.617188 227.632812 415.347656 226.839844 C 415.535156 224.210938 415.710938 221.570312 415.828125 218.929688 C 416.691406 199.59375 415.648438 181.070312 412.90625 163.59375 Z M 123.242188 70.746094 C 108.761719 85.15625 95.578125 101.625 84.085938 119.6875 C 103.863281 135.480469 124.867188 149.800781 146.972656 162.464844 C 155.929688 142.417969 165.753906 123.515625 176.179688 106.265625 C 157.554688 95.644531 139.871094 83.78125 123.242188 70.746094 Z M 344.132812 161.128906 C 325.433594 158.976562 306.671875 155.613281 287.914062 150.949219 C 277.289062 148.308594 266.863281 145.273438 256.625 141.917969 L 235.417969 202.121094 C 266.761719 212.582031 299.570312 219.992188 333.511719 223.984375 C 335.910156 213.71875 338 203.40625 339.769531 193.082031 C 341.65625 182.046875 343.101562 171.386719 344.128906 161.128906 Z M 176.757812 106.582031 C 166.222656 123.738281 156.308594 142.609375 147.300781 162.652344 C 174.820312 178.390625 204.015625 191.578125 234.613281 201.847656 L 254.8125 141.324219 C 227.289062 132.167969 201.199219 120.472656 176.753906 106.582031 Z M 176.757812 106.582031 " fill-opacity="1" fill-rule="nonzero"/></g></g></g></g><g transform="matrix(1, 0, 0, 1, 425, 627)"><g clip-path="url(#bf3878abea)"><g fill="#000000" fill-opacity="1"><g transform="translate(2.215508, 216.219467)"><g><path d="M 71.21875 2.71875 C 54.738281 2.71875 40.863281 -0.644531 29.59375 -7.375 C 18.332031 -14.101562 10.359375 -23.515625 5.671875 -35.609375 L 38.328125 -47.40625 C 40.453125 -40.144531 44.421875 -34.773438 50.234375 -31.296875 C 56.054688 -27.816406 63.128906 -26.078125 71.453125 -26.078125 C 75.835938 -26.078125 80.070312 -26.566406 84.15625 -27.546875 C 88.238281 -28.535156 91.640625 -30.203125 94.359375 -32.546875 C 97.078125 -34.890625 98.4375 -38.03125 98.4375 -41.96875 C 98.4375 -47.257812 95.863281 -51.378906 90.71875 -54.328125 C 85.582031 -57.273438 78.929688 -59.503906 70.765625 -61.015625 L 52.390625 -64.640625 C 44.234375 -66.304688 36.632812 -68.835938 29.59375 -72.234375 C 22.5625 -75.640625 16.925781 -80.175781 12.6875 -85.84375 C 8.457031 -91.519531 6.34375 -98.671875 6.34375 -107.296875 C 6.34375 -115.453125 8.234375 -122.476562 12.015625 -128.375 C 15.796875 -134.28125 20.820312 -139.125 27.09375 -142.90625 C 33.375 -146.6875 40.296875 -149.519531 47.859375 -151.40625 C 55.421875 -153.300781 62.984375 -154.25 70.546875 -154.25 C 78.710938 -154.25 86.613281 -153.113281 94.25 -150.84375 C 101.882812 -148.570312 108.722656 -145.050781 114.765625 -140.28125 C 120.816406 -135.519531 125.429688 -129.210938 128.609375 -121.359375 L 96.171875 -109.5625 C 94.203125 -114.695312 90.6875 -118.625 85.625 -121.34375 C 80.5625 -124.070312 74.476562 -125.4375 67.375 -125.4375 C 60.414062 -125.4375 54.628906 -124.1875 50.015625 -121.6875 C 45.398438 -119.195312 43.09375 -115.609375 43.09375 -110.921875 C 43.09375 -107.140625 44.679688 -103.882812 47.859375 -101.15625 C 51.035156 -98.4375 55.195312 -96.550781 60.34375 -95.5 L 80.75 -91.40625 C 86.945312 -90.195312 93.222656 -88.644531 99.578125 -86.75 C 105.929688 -84.863281 111.789062 -82.367188 117.15625 -79.265625 C 122.519531 -76.171875 126.863281 -72.050781 130.1875 -66.90625 C 133.519531 -61.769531 135.1875 -55.269531 135.1875 -47.40625 C 135.1875 -39.394531 133.332031 -32.25 129.625 -25.96875 C 125.925781 -19.695312 121.015625 -14.441406 114.890625 -10.203125 C 108.765625 -5.972656 101.921875 -2.757812 94.359375 -0.5625 C 86.796875 1.625 79.082031 2.71875 71.21875 2.71875 Z M 71.21875 2.71875 "/></g></g></g><g fill="#000000" fill-opacity="1"><g transform="translate(142.602624, 216.219467)"><g><path d="M 11.34375 0 L 11.34375 -151.515625 L 45.8125 -151.515625 L 45.8125 -97.53125 C 48.382812 -101.769531 52.65625 -105.851562 58.625 -109.78125 C 64.601562 -113.71875 71.90625 -115.6875 80.53125 -115.6875 C 95.039062 -115.6875 104.976562 -111.640625 110.34375 -103.546875 C 115.71875 -95.453125 118.40625 -83.769531 118.40625 -68.5 L 118.40625 0 L 83.921875 0 L 83.921875 -59.875 C 83.921875 -65.175781 83.617188 -70.019531 83.015625 -74.40625 C 82.410156 -78.789062 80.9375 -82.304688 78.59375 -84.953125 C 76.25 -87.597656 72.28125 -88.921875 66.6875 -88.921875 C 59.425781 -88.921875 54.128906 -86.3125 50.796875 -81.09375 C 47.472656 -75.875 45.8125 -68.125 45.8125 -57.84375 L 45.8125 0 Z M 11.34375 0 "/></g></g></g><g fill="#000000" fill-opacity="1"><g transform="translate(272.330305, 216.219467)"><g><path d="M 127.703125 39.015625 C 116.054688 39.015625 106.753906 36.140625 99.796875 30.390625 C 92.847656 24.648438 89.375 15.273438 89.375 2.265625 L 89.375 -15.875 C 85.738281 -9.832031 80.671875 -5.222656 74.171875 -2.046875 C 67.671875 1.128906 61.320312 2.71875 55.125 2.71875 C 45.445312 2.71875 36.863281 0.375 29.375 -4.3125 C 21.882812 -9 16.019531 -15.765625 11.78125 -24.609375 C 7.550781 -33.453125 5.4375 -44 5.4375 -56.25 C 5.4375 -68.5 7.550781 -79.046875 11.78125 -87.890625 C 16.019531 -96.742188 21.882812 -103.585938 29.375 -108.421875 C 36.863281 -113.265625 45.445312 -115.6875 55.125 -115.6875 C 61.320312 -115.6875 67.671875 -114.132812 74.171875 -111.03125 C 80.671875 -107.925781 85.738281 -103.273438 89.375 -97.078125 L 93.90625 -112.5 L 123.84375 -112.5 L 123.84375 -8.625 C 123.84375 -3.9375 124.484375 -0.0390625 125.765625 3.0625 C 127.054688 6.164062 130.800781 7.71875 137 7.71875 C 141.382812 7.71875 146.675781 6.957031 152.875 5.4375 L 152.875 35.15625 C 150.457031 35.914062 146.976562 36.75 142.4375 37.65625 C 137.90625 38.5625 132.992188 39.015625 127.703125 39.015625 Z M 66.234375 -24.046875 C 72.890625 -24.046875 78.671875 -26.648438 83.578125 -31.859375 C 88.492188 -37.078125 90.953125 -45.4375 90.953125 -56.9375 C 90.953125 -68.582031 88.492188 -76.820312 83.578125 -81.65625 C 78.671875 -86.5 72.890625 -88.921875 66.234375 -88.921875 C 59.429688 -88.921875 53.570312 -86.046875 48.65625 -80.296875 C 43.738281 -74.546875 41.28125 -66.53125 41.28125 -56.25 C 41.28125 -45.664062 43.738281 -37.648438 48.65625 -32.203125 C 53.570312 -26.765625 59.429688 -24.046875 66.234375 -24.046875 Z M 66.234375 -24.046875 "/></g></g></g><g fill="#000000" fill-opacity="1"><g transform="translate(408.635057, 216.219467)"><g><path d="M 44.234375 -131.109375 C 38.640625 -131.109375 33.835938 -133.109375 29.828125 -137.109375 C 25.816406 -141.117188 23.8125 -145.921875 23.8125 -151.515625 C 23.8125 -157.265625 25.816406 -162.101562 29.828125 -166.03125 C 33.835938 -169.96875 38.640625 -171.9375 44.234375 -171.9375 C 49.972656 -171.9375 54.804688 -169.96875 58.734375 -166.03125 C 62.671875 -162.101562 64.640625 -157.265625 64.640625 -151.515625 C 64.640625 -145.921875 62.671875 -141.117188 58.734375 -137.109375 C 54.804688 -133.109375 49.972656 -131.109375 44.234375 -131.109375 Z M 26.765625 0 L 26.765625 -86.1875 L 5.4375 -86.1875 L 5.4375 -112.5 L 61.46875 -112.5 L 61.46875 0 Z M 26.765625 0 "/></g></g></g><g fill="#000000" fill-opacity="1"><g transform="translate(480.075989, 216.219467)"><g><path d="M 11.34375 36.515625 L 11.34375 -112.5 L 41.28125 -112.5 L 45.8125 -97.078125 C 49.445312 -103.273438 54.550781 -107.925781 61.125 -111.03125 C 67.707031 -114.132812 74.023438 -115.6875 80.078125 -115.6875 C 89.753906 -115.6875 98.332031 -113.265625 105.8125 -108.421875 C 113.300781 -103.585938 119.160156 -96.742188 123.390625 -87.890625 C 127.628906 -79.046875 129.75 -68.5 129.75 -56.25 C 129.75 -44 127.628906 -33.453125 123.390625 -24.609375 C 119.160156 -15.765625 113.300781 -9 105.8125 -4.3125 C 98.332031 0.375 89.753906 2.71875 80.078125 2.71875 C 74.023438 2.71875 67.707031 1.128906 61.125 -2.046875 C 54.550781 -5.222656 49.445312 -9.910156 45.8125 -16.109375 L 45.8125 36.515625 Z M 69.1875 -24.046875 C 75.832031 -24.046875 81.613281 -26.765625 86.53125 -32.203125 C 91.445312 -37.648438 93.90625 -45.664062 93.90625 -56.25 C 93.90625 -66.53125 91.445312 -74.546875 86.53125 -80.296875 C 81.613281 -86.046875 75.832031 -88.921875 69.1875 -88.921875 C 62.375 -88.921875 56.507812 -86.5 51.59375 -81.65625 C 46.6875 -76.820312 44.234375 -68.582031 44.234375 -56.9375 C 44.234375 -45.4375 46.6875 -37.078125 51.59375 -31.859375 C 56.507812 -26.648438 62.375 -24.046875 69.1875 -24.046875 Z M 69.1875 -24.046875 "/></g></g></g><g fill="#000000" fill-opacity="1"><g transform="translate(615.246795, 216.219467)"><g><path d="M 65.09375 2.71875 C 54.664062 2.71875 44.914062 0.601562 35.84375 -3.625 C 26.769531 -7.863281 19.429688 -14.40625 13.828125 -23.25 C 8.234375 -32.09375 5.4375 -43.242188 5.4375 -56.703125 C 5.4375 -70.316406 8.234375 -81.46875 13.828125 -90.15625 C 19.429688 -98.851562 26.769531 -105.28125 35.84375 -109.4375 C 44.914062 -113.601562 54.664062 -115.6875 65.09375 -115.6875 C 75.382812 -115.6875 85.066406 -113.601562 94.140625 -109.4375 C 103.210938 -105.28125 110.546875 -98.851562 116.140625 -90.15625 C 121.734375 -81.46875 124.53125 -70.316406 124.53125 -56.703125 C 124.53125 -43.242188 121.734375 -32.09375 116.140625 -23.25 C 110.546875 -14.40625 103.210938 -7.863281 94.140625 -3.625 C 85.066406 0.601562 75.382812 2.71875 65.09375 2.71875 Z M 65.09375 -24.046875 C 72.050781 -24.046875 77.835938 -26.539062 82.453125 -31.53125 C 87.066406 -36.519531 89.375 -44.910156 89.375 -56.703125 C 89.375 -68.648438 86.988281 -77.003906 82.21875 -81.765625 C 77.457031 -86.535156 71.75 -88.921875 65.09375 -88.921875 C 58.289062 -88.921875 52.507812 -86.535156 47.75 -81.765625 C 42.988281 -77.003906 40.609375 -68.648438 40.609375 -56.703125 C 40.609375 -44.910156 42.953125 -36.519531 47.640625 -31.53125 C 52.328125 -26.539062 58.144531 -24.046875 65.09375 -24.046875 Z M 65.09375 -24.046875 "/></g></g></g><g fill="#000000" fill-opacity="1"><g transform="translate(745.20125, 216.219467)"><g><path d="M 11.34375 0 L 11.34375 -112.5 L 41.515625 -112.5 L 45.8125 -97.53125 C 48.382812 -101.769531 52.65625 -105.851562 58.625 -109.78125 C 64.601562 -113.71875 71.90625 -115.6875 80.53125 -115.6875 C 95.039062 -115.6875 104.976562 -111.640625 110.34375 -103.546875 C 115.71875 -95.453125 118.40625 -83.769531 118.40625 -68.5 L 118.40625 0 L 83.921875 0 L 83.921875 -59.875 C 83.921875 -65.175781 83.617188 -70.019531 83.015625 -74.40625 C 82.410156 -78.789062 80.9375 -82.304688 78.59375 -84.953125 C 76.25 -87.597656 72.28125 -88.921875 66.6875 -88.921875 C 59.425781 -88.921875 54.128906 -86.3125 50.796875 -81.09375 C 47.472656 -75.875 45.8125 -68.125 45.8125 -57.84375 L 45.8125 0 Z M 11.34375 0 "/></g></g></g><g fill="#000000" fill-opacity="1"><g transform="translate(874.92889, 216.219467)"><g><path d="M 29.9375 -131.109375 C 24.34375 -131.109375 19.539062 -133.109375 15.53125 -137.109375 C 11.53125 -141.117188 9.53125 -145.921875 9.53125 -151.515625 C 9.53125 -157.265625 11.53125 -162.101562 15.53125 -166.03125 C 19.539062 -169.96875 24.34375 -171.9375 29.9375 -171.9375 C 35.53125 -171.9375 40.332031 -169.96875 44.34375 -166.03125 C 48.351562 -162.101562 50.359375 -157.265625 50.359375 -151.515625 C 50.359375 -145.921875 48.351562 -141.117188 44.34375 -137.109375 C 40.332031 -133.109375 35.53125 -131.109375 29.9375 -131.109375 Z M 3.859375 36.515625 L -15.875 36.515625 L -15.875 9.296875 L -2.5 9.296875 C 3.394531 9.296875 7.363281 8.765625 9.40625 7.703125 C 11.445312 6.648438 12.46875 4.234375 12.46875 0.453125 L 12.46875 -112.5 L 46.953125 -112.5 L 46.953125 5.4375 C 46.953125 13.90625 45.0625 20.40625 41.28125 24.9375 C 37.5 29.476562 32.394531 32.539062 25.96875 34.125 C 19.539062 35.71875 12.171875 36.515625 3.859375 36.515625 Z M 3.859375 36.515625 "/></g></g></g><g fill="#000000" fill-opacity="1"><g transform="translate(933.669267, 216.219467)"><g><path d="M 44.234375 2.71875 C 37.128906 2.71875 30.625 1.359375 24.71875 -1.359375 C 18.820312 -4.078125 14.132812 -7.894531 10.65625 -12.8125 C 7.175781 -17.726562 5.4375 -23.585938 5.4375 -30.390625 C 5.4375 -39.617188 8.648438 -46.953125 15.078125 -52.390625 C 21.503906 -57.835938 30.3125 -61.921875 41.5 -64.640625 C 52.695312 -67.367188 65.554688 -69.257812 80.078125 -70.3125 C 80.078125 -78.332031 78.789062 -84.003906 76.21875 -87.328125 C 73.644531 -90.648438 68.65625 -92.3125 61.25 -92.3125 C 56.5625 -92.3125 52.4375 -91.210938 48.875 -89.015625 C 45.320312 -86.828125 42.941406 -83.46875 41.734375 -78.9375 L 12.703125 -89.375 C 16.484375 -96.9375 22.796875 -103.210938 31.640625 -108.203125 C 40.484375 -113.191406 51.332031 -115.6875 64.1875 -115.6875 C 80.21875 -115.6875 92.539062 -112.128906 101.15625 -105.015625 C 109.78125 -97.910156 114.09375 -85.816406 114.09375 -68.734375 L 114.09375 -44 C 114.09375 -39.164062 114.242188 -33.945312 114.546875 -28.34375 C 114.847656 -22.75 115.300781 -17.457031 115.90625 -12.46875 C 116.507812 -7.476562 117.191406 -3.320312 117.953125 0 L 85.96875 0 L 81.890625 -13.609375 C 77.648438 -7.710938 72.316406 -3.515625 65.890625 -1.015625 C 59.460938 1.472656 52.242188 2.71875 44.234375 2.71875 Z M 56.9375 -20.875 C 63.738281 -20.875 69.40625 -22.6875 73.9375 -26.3125 C 78.476562 -29.9375 80.75 -36.894531 80.75 -47.1875 L 80.75 -49.90625 C 68.800781 -48.84375 59.195312 -47.210938 51.9375 -45.015625 C 44.6875 -42.828125 41.0625 -38.785156 41.0625 -32.890625 C 41.0625 -29.265625 42.570312 -26.351562 45.59375 -24.15625 C 48.613281 -21.96875 52.394531 -20.875 56.9375 -20.875 Z M 56.9375 -20.875 "/></g></g></g></g></g><g transform="matrix(1, 0, 0, 1, 1230, 862)"><g clip-path="url(#44b2a89c5f)"><g fill="#000000" fill-opacity="1"><g transform="translate(0.702357, 113.361646)"><g><path d="M 33.59375 1.375 C 28.101562 1.375 23.242188 0.160156 19.015625 -2.265625 C 14.785156 -4.703125 11.472656 -8.101562 9.078125 -12.46875 C 6.691406 -16.832031 5.5 -21.832031 5.5 -27.46875 C 5.5 -33.101562 6.691406 -38.082031 9.078125 -42.40625 C 11.472656 -46.738281 14.800781 -50.117188 19.0625 -52.546875 C 23.320312 -54.984375 28.203125 -56.203125 33.703125 -56.203125 C 39.546875 -56.203125 44.613281 -54.828125 48.90625 -52.078125 C 53.207031 -49.328125 56.5 -45.539062 58.78125 -40.71875 C 61.070312 -35.894531 62.113281 -30.28125 61.90625 -23.875 L 14.46875 -23.875 C 15.175781 -18.726562 17.253906 -14.625 20.703125 -11.5625 C 24.148438 -8.5 28.484375 -6.96875 33.703125 -6.96875 C 37.296875 -6.96875 40.566406 -7.742188 43.515625 -9.296875 C 46.472656 -10.847656 48.800781 -13.066406 50.5 -15.953125 L 60.53125 -15.953125 C 58.34375 -10.597656 54.851562 -6.367188 50.0625 -3.265625 C 45.28125 -0.171875 39.789062 1.375 33.59375 1.375 Z M 14.578125 -31.6875 L 53.03125 -31.6875 C 52.113281 -36.6875 49.910156 -40.628906 46.421875 -43.515625 C 42.941406 -46.410156 38.703125 -47.859375 33.703125 -47.859375 C 28.628906 -47.859375 24.363281 -46.378906 20.90625 -43.421875 C 17.457031 -40.460938 15.347656 -36.550781 14.578125 -31.6875 Z M 14.578125 -31.6875 "/></g></g></g><g fill="#000000" fill-opacity="1"><g transform="translate(67.883869, 113.361646)"><g><path d="M 35.390625 1.375 C 29.472656 1.375 24.347656 0.375 20.015625 -1.625 C 15.679688 -3.632812 12.332031 -6.453125 9.96875 -10.078125 C 7.613281 -13.710938 6.40625 -17.925781 6.34375 -22.71875 L 15.640625 -22.71875 C 15.773438 -18 17.65625 -14.28125 21.28125 -11.5625 C 24.914062 -8.851562 29.617188 -7.5 35.390625 -7.5 C 40.597656 -7.5 44.734375 -8.519531 47.796875 -10.5625 C 50.859375 -12.601562 52.390625 -15.457031 52.390625 -19.125 C 52.390625 -22.570312 50.910156 -25.332031 47.953125 -27.40625 C 45.003906 -29.488281 40.179688 -31.304688 33.484375 -32.859375 C 24.398438 -35.035156 17.742188 -37.832031 13.515625 -41.25 C 9.296875 -44.664062 7.1875 -49.226562 7.1875 -54.9375 C 7.1875 -61.195312 9.5625 -66.160156 14.3125 -69.828125 C 19.0625 -73.492188 25.488281 -75.328125 33.59375 -75.328125 C 41.90625 -75.328125 48.472656 -73.25 53.296875 -69.09375 C 58.117188 -64.9375 60.566406 -59.265625 60.640625 -52.078125 L 51.453125 -52.078125 C 51.378906 -56.515625 49.738281 -60.019531 46.53125 -62.59375 C 43.332031 -65.164062 39.019531 -66.453125 33.59375 -66.453125 C 28.3125 -66.453125 24.171875 -65.410156 21.171875 -63.328125 C 18.179688 -61.253906 16.6875 -58.457031 16.6875 -54.9375 C 16.6875 -51.90625 18.078125 -49.347656 20.859375 -47.265625 C 23.640625 -45.191406 28.625 -43.273438 35.8125 -41.515625 C 45.25 -39.191406 51.972656 -36.285156 55.984375 -32.796875 C 60.003906 -29.316406 62.015625 -24.863281 62.015625 -19.4375 C 62.015625 -13.03125 59.597656 -7.957031 54.765625 -4.21875 C 49.941406 -0.488281 43.484375 1.375 35.390625 1.375 Z M 35.390625 1.375 "/></g></g></g><g fill="#000000" fill-opacity="1"><g transform="translate(136.227332, 113.361646)"><g><path d="M 9.828125 0 L 9.828125 -54.828125 L 18.703125 -54.828125 L 18.703125 0 Z M 7.078125 -70.78125 C 7.078125 -72.820312 7.726562 -74.492188 9.03125 -75.796875 C 10.332031 -77.097656 12.078125 -77.75 14.265625 -77.75 C 16.441406 -77.75 18.164062 -77.097656 19.4375 -75.796875 C 20.707031 -74.492188 21.34375 -72.820312 21.34375 -70.78125 C 21.34375 -68.8125 20.707031 -67.171875 19.4375 -65.859375 C 18.164062 -64.554688 16.441406 -63.90625 14.265625 -63.90625 C 12.078125 -63.90625 10.332031 -64.554688 9.03125 -65.859375 C 7.726562 -67.171875 7.078125 -68.8125 7.078125 -70.78125 Z M 7.078125 -70.78125 "/></g></g></g><g fill="#000000" fill-opacity="1"><g transform="translate(164.747785, 113.361646)"><g><path d="M 10.78125 0 L 10.78125 -73.953125 L 19.4375 -73.953125 L 48.484375 -30.109375 L 77.328125 -73.953125 L 85.984375 -73.953125 L 85.984375 0 L 76.6875 0 L 76.6875 -56.515625 L 52.1875 -19.65625 L 44.578125 -19.65625 L 20.078125 -56.625 L 20.078125 0 Z M 10.78125 0 "/></g></g></g></g></g><g clip-path="url(#3283556009)"><g clip-path="url(#ec94d3caca)"><g transform="matrix(1, 0, 0, 1, 1307, 670)"><g clip-path="url(#12c1896493)"><g clip-path="url(#c8585e9220)"><g clip-path="url(#a77f9d2b3b)"><path fill="#cc0000" d="M 0.757812 0.640625 L 45.050781 0.640625 L 45.050781 44.933594 L 0.757812 44.933594 Z M 0.757812 0.640625 " fill-opacity="1" fill-rule="nonzero"/></g></g></g></g></g></g><g clip-path="url(#2f90f83dbd)"><g clip-path="url(#7e8918b9f1)"><g transform="matrix(1, 0, 0, 1, 1372, 896)"><g clip-path="url(#b14c57216a)"><g clip-path="url(#5a0ecf3a85)"><g clip-path="url(#a5414220f0)"><path fill="#cc0000" d="M 0.871094 0.5625 L 16.246094 0.5625 L 16.246094 15.9375 L 0.871094 15.9375 Z M 0.871094 0.5625 " fill-opacity="1" fill-rule="nonzero"/></g></g></g></g></g></g><g clip-path="url(#8383447499)"><g clip-path="url(#ba4538434a)"><g transform="matrix(1, 0, 0, 1, 856, 670)"><g clip-path="url(#0ed932dfcf)"><g clip-path="url(#05032c611f)"><g clip-path="url(#68045d1f0f)"><path fill="#cc0000" d="M 0.527344 0.640625 L 44.820312 0.640625 L 44.820312 44.933594 L 0.527344 44.933594 Z M 0.527344 0.640625 " fill-opacity="1" fill-rule="nonzero"/></g></g></g></g></g></g><g clip-path="url(#37748efd88)"><path fill="#ed1c24" d="M 219.386719 607.699219 C 135.832031 607.699219 66.738281 669.578125 55.402344 750.011719 C 55.324219 750.574219 55.242188 751.136719 55.167969 751.699219 C 55.078125 752.371094 55.003906 753.046875 54.921875 753.71875 C 54.851562 754.355469 54.773438 754.988281 54.707031 755.621094 C 54.636719 756.261719 54.574219 756.90625 54.515625 757.550781 C 54.449219 758.234375 54.390625 758.917969 54.335938 759.605469 C 54.285156 760.214844 54.238281 760.820312 54.191406 761.433594 C 54.140625 762.179688 54.09375 762.929688 54.050781 763.683594 C 54.015625 764.242188 53.984375 764.792969 53.957031 765.355469 C 53.914062 766.214844 53.886719 767.082031 53.859375 767.945312 C 53.84375 768.40625 53.824219 768.863281 53.8125 769.324219 C 53.78125 770.652344 53.761719 771.988281 53.761719 773.324219 C 53.761719 775.253906 53.796875 777.171875 53.863281 779.082031 C 53.882812 779.644531 53.925781 780.199219 53.949219 780.753906 C 54.007812 782.105469 54.0625 783.460938 54.15625 784.804688 C 54.199219 785.425781 54.265625 786.042969 54.3125 786.660156 C 54.414062 787.9375 54.515625 789.214844 54.644531 790.480469 C 54.710938 791.097656 54.796875 791.710938 54.863281 792.328125 C 55.007812 793.589844 55.148438 794.847656 55.324219 796.101562 C 55.402344 796.710938 55.507812 797.308594 55.597656 797.917969 C 55.785156 799.164062 55.96875 800.417969 56.183594 801.660156 C 56.289062 802.265625 56.410156 802.867188 56.523438 803.464844 C 56.75 804.703125 56.976562 805.9375 57.230469 807.160156 C 57.351562 807.761719 57.496094 808.359375 57.628906 808.960938 C 57.894531 810.167969 58.160156 811.382812 58.453125 812.582031 C 58.605469 813.203125 58.769531 813.804688 58.925781 814.421875 C 59.226562 815.59375 59.523438 816.765625 59.847656 817.929688 C 59.882812 818.046875 59.910156 818.171875 59.945312 818.289062 L 59.953125 818.289062 C 71.671875 859.90625 99.238281 894.886719 135.738281 916.289062 C 183.457031 841.179688 269.230469 781.199219 325.109375 830.785156 C 327.410156 796.386719 300.894531 767.9375 280.675781 762.441406 C 268.445312 764.972656 255.515625 767.679688 246.535156 762.578125 C 228.984375 752.605469 230.917969 735.414062 230.917969 735.414062 C 252.113281 729.832031 273.929688 760.773438 273.929688 760.773438 C 273.929688 760.773438 272.957031 721.582031 241.316406 701.699219 L 241.316406 701.695312 L 241.308594 701.695312 C 237.199219 699.113281 232.5625 696.859375 227.355469 695.058594 C 209.429688 686.125 180.3125 670.074219 177.707031 658.90625 C 177.707031 658.90625 173.054688 674.269531 174.855469 690.933594 C 152.746094 694.089844 127.765625 703.460938 94.960938 721.460938 C 115.277344 672.777344 163.335938 638.554688 219.386719 638.554688 C 293.824219 638.554688 354.160156 698.890625 354.160156 773.324219 C 354.160156 847.757812 293.824219 908.09375 219.386719 908.09375 C 212.730469 908.09375 206.195312 907.605469 199.796875 906.671875 C 218.296875 860.765625 256.054688 848.644531 256.054688 848.644531 C 193.378906 855.496094 154.214844 925.613281 154.214844 925.613281 C 174.214844 934.191406 196.242188 938.949219 219.386719 938.949219 C 310.859375 938.949219 385.011719 864.796875 385.011719 773.324219 C 385.011719 681.851562 310.859375 607.699219 219.386719 607.699219 " fill-opacity="1" fill-rule="nonzero"/></g></svg>